<svg width="478" height="466" viewBox="0 0 478 466" fill="none" xmlns="http://www.w3.org/2000/svg">
<rect width="478" height="466" fill="#F5F5F5"/>
<rect width="478" height="466" fill="#D9D9D9"/>
<path d="M40.672 93.872L32.416 93.68C31.9467 91.888 31.6693 83.824 31.584 69.488V64.944C31.584 61.3173 31.9253 58.5653 32.608 56.688C33.2907 54.768 34.72 53.232 36.896 52.08C38.0053 51.5253 39.5413 51.248 41.504 51.248C43.5093 51.248 45.0453 51.376 46.112 51.632C48.9707 52.2293 50.912 53.3387 51.936 54.96C53.0027 56.5813 53.536 58.7573 53.536 61.488C53.536 65.2853 52.5333 68.08 50.528 69.872C51.552 70 52.576 70.512 53.6 71.408C54.624 72.304 55.456 73.2213 56.096 74.16C57.2053 75.8667 57.76 78.192 57.76 81.136C57.76 85.744 56.352 89.0293 53.536 90.992C50.7627 92.912 46.4747 93.872 40.672 93.872ZM36.704 62.704L36.832 70C36.9173 70 37.6427 69.9147 39.008 69.744C40.3733 69.5307 41.5253 69.3173 42.464 69.104C46.7733 68.08 48.928 65.6267 48.928 61.744C48.928 59.824 48.352 58.416 47.2 57.52C46.0907 56.624 44.6187 56.176 42.784 56.176C40.48 56.176 38.9227 56.5813 38.112 57.392C37.7707 57.7333 37.4933 58.032 37.28 58.288C37.0667 58.5013 36.9173 58.864 36.832 59.376C36.7467 59.888 36.6827 60.2507 36.64 60.464C36.64 60.6773 36.64 61.0827 36.64 61.68C36.6827 62.2773 36.704 62.6187 36.704 62.704ZM51.104 76.336C50.6773 75.8667 50.016 75.44 49.12 75.056C48.224 74.672 46.9227 74.48 45.216 74.48C43.552 74.48 40.6933 74.7573 36.64 75.312C36.64 81.968 36.7467 86.4693 36.96 88.816C41.952 88.816 45.4507 88.496 47.456 87.856C49.4613 87.1733 50.8053 86.3627 51.488 85.424C52.2133 84.4427 52.576 83.4187 52.576 82.352C52.576 81.2427 52.5547 80.4747 52.512 80.048C52.512 79.5787 52.384 78.96 52.128 78.192C51.9147 77.3813 51.5733 76.7627 51.104 76.336ZM62.7415 66.608C62.9122 65.8827 63.2748 65.2853 63.8295 64.816C64.3842 64.304 64.9388 64.048 65.4935 64.048C66.0908 64.048 66.5388 64.1547 66.8375 64.368C67.1788 64.5813 67.3708 64.7733 67.4135 64.944C67.4988 65.1147 67.5842 65.4133 67.6695 65.84C67.4135 69.168 67.2855 72.176 67.2855 74.864C67.2855 77.5093 67.6055 80.56 68.2455 84.016C68.8855 87.4293 69.5895 89.136 70.3575 89.136C71.5095 89.136 72.9602 88.496 74.7095 87.216C76.5015 85.936 77.7815 84.592 78.5495 83.184C78.0375 77.04 77.7815 71.7707 77.7815 67.376C77.7815 66.48 78.0588 65.712 78.6135 65.072C79.2108 64.432 79.9148 64.112 80.7255 64.112C82.0482 64.112 82.7095 65.008 82.7095 66.8C82.7095 69.8293 82.9228 74.3307 83.3495 80.304C83.8188 86.2773 84.2882 90.0747 84.7575 91.696C84.8428 92.0373 84.8855 92.4427 84.8855 92.912C84.8855 93.3387 84.5868 93.744 83.9895 94.128C83.4348 94.5547 82.6882 94.768 81.7495 94.768C80.8535 94.768 80.2562 94.256 79.9575 93.232C79.8722 92.3787 79.6588 91.0987 79.3175 89.392C76.3308 92.5067 73.3228 94.064 70.2935 94.064C68.8855 94.064 67.6268 93.5307 66.5175 92.464C65.4082 91.3973 64.5335 89.9467 63.8935 88.112C62.7842 84.5707 62.2295 81.2427 62.2295 78.128C62.2295 75.0133 62.4002 71.1733 62.7415 66.608ZM92.7185 53.552C93.4865 53.552 94.2118 53.9147 94.8945 54.64C95.5772 55.3653 95.9185 56.1333 95.9185 56.944C95.9185 57.712 95.5345 58.5013 94.7665 59.312C94.0412 60.1227 93.2732 60.528 92.4625 60.528C91.6518 60.528 90.9052 60.1867 90.2225 59.504C89.5825 58.8213 89.2625 57.9467 89.2625 56.88C89.2625 54.832 90.3718 53.7227 92.5905 53.552C92.6332 53.552 92.6758 53.552 92.7185 53.552ZM95.4065 87.088L95.4705 91.568C95.4705 92.3787 95.1505 93.0613 94.5105 93.616C93.8705 94.128 93.1878 94.384 92.4625 94.384C91.3958 94.384 90.8412 93.8507 90.7985 92.784C90.2438 79.1733 89.9665 71.6427 89.9665 70.192C89.9665 68.7413 90.0305 66.9707 90.1585 64.88C90.2438 64.112 90.7345 63.728 91.6305 63.728C93.8918 63.728 95.1718 64.6453 95.4705 66.48C95.5985 67.4187 95.6625 68.1653 95.6625 68.72L95.4065 72.752V87.088ZM102.615 52.592C102.743 50.9707 102.999 49.9253 103.383 49.456C103.81 48.944 104.471 48.688 105.367 48.688C107.202 48.688 108.119 49.4347 108.119 50.928C108.119 52.08 108.012 55.088 107.799 59.952C107.628 64.816 107.543 69.168 107.543 73.008C107.543 76.848 107.692 79.9413 107.991 82.288C108.503 86.384 109.228 88.432 110.167 88.432C111.106 88.432 111.81 87.7707 112.279 86.448C112.492 85.936 112.834 85.488 113.303 85.104C113.772 84.6773 114.37 84.464 115.095 84.464C116.588 84.464 117.335 85.7227 117.335 88.24C117.335 89.6053 116.588 90.9707 115.095 92.336C113.644 93.6587 112.194 94.32 110.743 94.32C109.292 94.32 108.119 94.0853 107.223 93.616C106.37 93.104 105.666 92.3573 105.111 91.376C104.599 90.3947 104.172 89.456 103.831 88.56C103.532 87.6213 103.319 86.4907 103.191 85.168C102.935 83.0347 102.743 79.6213 102.615 74.928C102.53 70.192 102.487 65.6907 102.487 61.424C102.487 57.1147 102.53 54.1707 102.615 52.592ZM135.103 64.048L135.039 51.696C135.039 49.392 135.764 48.24 137.215 48.24C138.708 48.24 139.54 48.88 139.711 50.16C139.796 50.7147 139.903 54.064 140.031 60.208C140.159 66.352 140.351 72.112 140.607 77.488C140.906 82.864 141.055 87.8773 141.055 92.528C141.055 93.808 140.095 94.448 138.175 94.448C136.895 94.448 136.255 93.552 136.255 91.76C134.42 93.2107 132.244 93.936 129.727 93.936C126.527 93.936 123.924 92.7413 121.919 90.352C119.956 87.9627 118.975 85.0187 118.975 81.52C118.975 78.0213 119.679 74.7573 121.087 71.728C122.538 68.656 124.778 66.4587 127.807 65.136C129.684 64.3253 131.498 63.92 133.247 63.92C133.887 63.92 134.506 63.9627 135.103 64.048ZM135.423 72.816C135.124 71.8773 134.762 71.1733 134.335 70.704C133.908 70.192 133.439 69.8933 132.927 69.808C132.458 69.68 131.882 69.616 131.199 69.616C130.516 69.616 129.684 69.872 128.703 70.384C127.722 70.896 126.89 71.728 126.207 72.88C124.842 75.184 124.159 77.616 124.159 80.176C124.159 82.6933 124.65 84.7627 125.631 86.384C126.655 87.9627 128.084 88.752 129.919 88.752C131.796 88.752 133.268 87.8347 134.335 86C135.402 84.1653 135.935 81.8187 135.935 78.96C135.935 75.76 135.764 73.712 135.423 72.816ZM152.041 81.392L146.729 81.52C146.131 81.52 145.619 81.3067 145.193 80.88C144.809 80.4533 144.617 79.856 144.617 79.088C144.617 78.2773 144.873 77.616 145.385 77.104C145.897 76.592 146.622 76.336 147.561 76.336H151.017H160.297C161.619 76.336 162.686 76.336 163.497 76.336C165.075 76.4213 165.865 77.232 165.865 78.768C165.865 79.4933 165.609 80.1333 165.097 80.688C164.627 81.2 163.923 81.456 162.985 81.456L152.041 81.392ZM184.764 51.824C185.83 51.824 186.726 52.2933 187.452 53.232C188.177 54.1707 189.116 56.112 190.268 59.056C192.956 66.0107 195.58 76.912 198.14 91.76C198.182 91.9307 198.204 92.1867 198.204 92.528C198.204 92.8267 197.99 93.168 197.564 93.552C197.18 93.8933 196.604 94.064 195.836 94.064C195.11 94.064 194.492 93.8933 193.98 93.552C193.468 93.168 193.126 92.5707 192.956 91.76C192.785 90.9067 192.465 89.264 191.996 86.832C190.972 81.4133 190.289 78.5973 189.948 78.384C189.436 78.0853 187.729 77.7653 184.828 77.424C181.969 77.0827 180.07 76.912 179.132 76.912C178.193 76.912 177.638 76.9973 177.468 77.168C176.7 77.8507 175.654 83.0347 174.332 92.72C174.161 93.5307 173.35 93.936 171.9 93.936C170.449 93.936 169.724 93.3173 169.724 92.08C169.724 89.008 170.854 83.1413 173.116 74.48C175.377 65.8187 177.254 60.08 178.748 57.264C180.625 53.6373 182.63 51.824 184.764 51.824ZM184.508 58.928C183.868 58.928 182.758 60.8267 181.18 64.624C179.601 68.3787 178.812 70.704 178.812 71.6C178.812 71.8133 178.854 71.9627 178.94 72.048C179.281 72.3893 180.625 72.688 182.972 72.944C185.318 73.2 186.876 73.328 187.644 73.328C188.412 73.328 188.838 73.2853 188.924 73.2C189.009 73.072 189.052 72.7307 189.052 72.176C189.052 71.5787 188.476 69.232 187.324 65.136C186.172 60.9973 185.233 58.928 184.508 58.928ZM209.166 81.392L203.854 81.52C203.256 81.52 202.744 81.3067 202.318 80.88C201.934 80.4533 201.742 79.856 201.742 79.088C201.742 78.2773 201.998 77.616 202.51 77.104C203.022 76.592 203.747 76.336 204.686 76.336H208.142H217.422C218.744 76.336 219.811 76.336 220.622 76.336C222.2 76.4213 222.99 77.232 222.99 78.768C222.99 79.4933 222.734 80.1333 222.222 80.688C221.752 81.2 221.048 81.456 220.11 81.456L209.166 81.392ZM227.041 85.104L227.105 80.112L227.681 53.36C227.681 52.848 227.958 52.4427 228.513 52.144C229.067 51.8453 229.771 51.696 230.625 51.696C232.673 51.696 233.697 52.4213 233.697 53.872C233.697 54.3413 233.441 57.9253 232.929 64.624C232.459 71.3227 232.225 75.3333 232.225 76.656C232.225 76.656 232.225 78.9173 232.225 83.44C232.225 86.64 232.438 88.3893 232.865 88.688C233.505 88.9013 234.251 89.008 235.105 89.008L244.321 88.368C246.326 88.368 247.329 89.0933 247.329 90.544C247.329 91.696 246.774 92.5493 245.665 93.104C244.598 93.616 243.531 93.9147 242.465 94C241.398 94.0427 240.097 94.064 238.561 94.064C231.862 94.064 228.235 93.8507 227.681 93.424C227.382 93.168 227.211 92.208 227.169 90.544C227.126 88.8373 227.083 87.6427 227.041 86.96C227.041 86.2773 227.041 85.6587 227.041 85.104ZM255.781 53.552C256.549 53.552 257.274 53.9147 257.957 54.64C258.64 55.3653 258.981 56.1333 258.981 56.944C258.981 57.712 258.597 58.5013 257.829 59.312C257.104 60.1227 256.336 60.528 255.525 60.528C254.714 60.528 253.968 60.1867 253.285 59.504C252.645 58.8213 252.325 57.9467 252.325 56.88C252.325 54.832 253.434 53.7227 255.653 53.552C255.696 53.552 255.738 53.552 255.781 53.552ZM258.469 87.088L258.533 91.568C258.533 92.3787 258.213 93.0613 257.573 93.616C256.933 94.128 256.25 94.384 255.525 94.384C254.458 94.384 253.904 93.8507 253.861 92.784C253.306 79.1733 253.029 71.6427 253.029 70.192C253.029 68.7413 253.093 66.9707 253.221 64.88C253.306 64.112 253.797 63.728 254.693 63.728C256.954 63.728 258.234 64.6453 258.533 66.48C258.661 67.4187 258.725 68.1653 258.725 68.72L258.469 72.752V87.088ZM266.958 72.24C266.958 69.7227 267.854 67.7173 269.646 66.224C271.438 64.7307 273.507 63.984 275.854 63.984C278.243 63.984 280.526 64.4107 282.702 65.264C284.878 66.1173 285.966 67.248 285.966 68.656C285.966 69.3813 285.688 69.9573 285.134 70.384C284.579 70.8107 284.088 71.024 283.662 71.024C283.278 71.024 282.958 71.024 282.702 71.024C282.488 70.9813 281.635 70.576 280.142 69.808C278.691 69.04 277.347 68.656 276.11 68.656C274.872 68.656 273.806 68.976 272.91 69.616C272.056 70.2133 271.63 71.1093 271.63 72.304C271.63 73.4987 272.12 74.4373 273.102 75.12C274.126 75.8027 275.896 76.4 278.414 76.912C280.931 77.3813 282.851 78.064 284.174 78.96C285.539 79.856 286.222 81.52 286.222 83.952C286.222 87.4933 285.283 90.0107 283.406 91.504C281.571 92.9547 279.331 93.68 276.686 93.68C274.04 93.68 271.779 93.3173 269.902 92.592C268.067 91.8667 267.15 90.7787 267.15 89.328C267.15 87.664 267.982 86.832 269.646 86.832C270.072 86.832 271.011 87.1307 272.462 87.728C273.912 88.3253 275.342 88.624 276.75 88.624C278.2 88.624 279.288 88.176 280.014 87.28C280.782 86.3413 281.166 85.2747 281.166 84.08C281.166 82.8853 280.675 82.032 279.694 81.52C278.712 80.9653 277.219 80.5173 275.214 80.176C273.208 79.8347 271.736 79.472 270.798 79.088C268.238 78.064 266.958 75.7813 266.958 72.24ZM292.095 64.112L295.295 64.176C296.02 64.176 296.425 64.1547 296.51 64.112V50.992C296.553 50.2667 296.916 49.648 297.599 49.136C298.281 48.624 298.921 48.368 299.519 48.368C300.116 48.368 300.585 48.56 300.927 48.944C301.311 49.328 301.481 49.9253 301.439 50.736C301.396 51.5467 301.375 55.984 301.375 64.048L308.863 63.792C310.143 63.792 310.783 64.5387 310.783 66.032C310.783 67.1413 310.441 67.9733 309.759 68.528C309.119 69.0827 308.415 69.3813 307.647 69.424C306.921 69.4667 306.196 69.488 305.471 69.488L301.567 69.424C301.567 71.1733 301.737 74.6293 302.079 79.792C302.463 84.9547 302.761 88.304 302.975 89.84C303.188 91.3333 303.231 92.3147 303.103 92.784C302.975 93.2107 302.74 93.5093 302.399 93.68C301.844 93.936 301.097 94.064 300.159 94.064C299.22 94.064 298.665 93.552 298.495 92.528C297.641 86.9387 297.065 79.2587 296.767 69.488C296.383 69.5307 294.911 69.552 292.351 69.552C289.791 69.552 288.511 68.8053 288.511 67.312C288.511 65.1787 289.705 64.112 292.095 64.112ZM45.024 138.632C47.7973 138.632 50.144 139.101 52.064 140.04C54.0267 140.979 55.008 142.173 55.008 143.624C55.008 144.264 54.8373 144.819 54.496 145.288C54.1973 145.757 53.728 145.992 53.088 145.992C52.4907 145.992 51.168 145.523 49.12 144.584C47.072 143.603 45.1947 143.112 43.488 143.112C41.824 143.112 40.096 143.645 38.304 144.712C36.512 145.779 35.616 147.08 35.616 148.616C35.616 150.707 36.704 152.243 38.88 153.224C40.5013 153.949 42.8267 154.611 45.856 155.208C48.8853 155.763 51.36 156.936 53.28 158.728C55.2 160.477 56.16 163.144 56.16 166.728C56.16 172.189 54.5173 176.221 51.232 178.824C49.3973 180.275 46.7947 181 43.424 181C40.096 181 36.768 180.083 33.44 178.248C31.264 177.096 30.176 175.944 30.176 174.792C30.176 174.365 30.3467 173.896 30.688 173.384C31.072 172.872 31.584 172.445 32.224 172.104C32.864 171.763 33.44 171.72 33.952 171.976C34.5067 172.189 35.3813 172.595 36.576 173.192C37.7707 173.789 38.6453 174.195 39.2 174.408C40.992 175.091 42.6773 175.432 44.256 175.432C45.8347 175.432 47.3493 174.664 48.8 173.128C50.2933 171.549 51.04 169.629 51.04 167.368C51.04 164.381 49.5467 162.291 46.56 161.096C45.1093 160.499 43.4667 160.051 41.632 159.752C37.8347 159.069 34.976 157.939 33.056 156.36C31.136 154.739 30.176 152.307 30.176 149.064C30.176 145.821 31.5627 143.283 34.336 141.448C37.1093 139.571 40.672 138.632 45.024 138.632ZM77.663 151.112C79.5403 151.112 80.479 152.712 80.479 155.912C80.479 156.253 80.479 156.616 80.479 157L80.351 161.48C80.3083 162.888 80.287 164.275 80.287 165.64L81.247 180.104C81.247 181.171 80.159 181.704 77.983 181.704C77.855 181.704 77.535 181.704 77.023 181.704C76.5537 181.704 76.2123 181.512 75.999 181.128C75.8283 180.744 75.807 180.275 75.935 179.72C76.1057 179.165 76.063 178.547 75.807 177.864C73.8443 179.955 71.2417 181 67.999 181C61.983 181 58.975 176.349 58.975 167.048C58.975 161.885 59.935 157.981 61.855 155.336C63.8177 152.691 66.6123 151.368 70.239 151.368C71.9457 151.368 73.6523 151.667 75.359 152.264C75.9137 151.496 76.6817 151.112 77.663 151.112ZM71.007 156.936C68.575 156.936 66.7617 157.64 65.567 159.048C64.3723 160.456 63.775 163.037 63.775 166.792C63.775 173.107 65.4817 176.264 68.895 176.264C69.791 176.264 70.7723 175.859 71.839 175.048C72.9483 174.237 73.7163 173.32 74.143 172.296C74.9537 169.992 75.359 167.475 75.359 164.744C75.359 162.013 75.0177 160.029 74.335 158.792C73.695 157.555 72.5857 156.936 71.007 156.936ZM88.5175 181.064C87.4082 181.064 86.7468 180.445 86.5335 179.208C86.5335 170.589 86.0215 162.909 84.9975 156.168C84.9975 155.315 85.2962 154.547 85.8935 153.864C86.5335 153.181 87.2375 152.84 88.0055 152.84C88.8162 152.84 89.4135 153.288 89.7975 154.184C91.3762 152.093 93.4882 151.048 96.1335 151.048C99.5042 151.048 102.107 152.669 103.942 155.912C106.075 152.84 108.891 151.304 112.39 151.304C115.931 151.304 118.576 152.712 120.326 155.528C121.478 157.277 122.288 159.581 122.758 162.44C123.227 165.299 123.462 169.352 123.462 174.6C123.462 176.648 123.248 178.248 122.822 179.4C122.395 180.509 121.499 181.064 120.134 181.064C119.024 181.064 118.47 180.36 118.47 178.952L118.662 170.952C118.662 161.352 116.166 156.552 111.174 156.552C109.595 156.552 108.486 157.107 107.846 158.216C107.12 159.539 106.694 160.925 106.566 162.376C106.395 164.936 106.31 167.261 106.31 169.352V178.632C106.31 179.315 105.968 179.891 105.286 180.36C104.603 180.829 103.899 181.064 103.174 181.064C102.235 181.064 101.638 180.445 101.382 179.208L101.574 165.96C101.574 161.267 100.784 158.344 99.2055 157.192C98.4375 156.637 97.2642 156.36 95.6855 156.36C94.1495 156.36 92.9975 156.936 92.2295 158.088C91.5042 159.24 91.1415 161.096 91.1415 163.656L91.5255 175.56C91.5255 179.229 90.5228 181.064 88.5175 181.064ZM138.482 180.936C137.031 180.936 135.687 180.445 134.45 179.464C134.45 179.464 134.172 179.229 133.618 178.76V197.96C133.362 198.813 132.914 199.517 132.274 200.072C131.634 200.669 130.951 200.968 130.226 200.968C129.116 200.968 128.562 200.221 128.562 198.728V154.12C128.818 153.011 129.116 152.221 129.458 151.752C129.842 151.283 130.418 151.048 131.186 151.048C131.996 151.048 132.508 151.24 132.722 151.624C132.978 151.965 133.276 152.947 133.618 154.568C133.788 153.715 134.471 152.925 135.666 152.2C136.86 151.475 138.46 151.112 140.466 151.112C144.818 151.112 147.911 152.691 149.746 155.848C151.58 159.005 152.498 162.739 152.498 167.048C152.498 171.315 151.239 174.707 148.722 177.224C146.247 179.699 142.834 180.936 138.482 180.936ZM133.618 161.736V173.64C133.874 173.768 134.172 173.981 134.514 174.28C135.751 175.389 137.095 175.944 138.546 175.944C144.434 175.944 147.378 172.915 147.378 166.856C147.378 161.693 146.055 158.429 143.41 157.064C142.3 156.467 140.935 156.168 139.314 156.168C137.735 156.381 136.391 157.085 135.282 158.28C134.172 159.432 133.618 160.584 133.618 161.736ZM155.553 139.592C155.681 137.971 155.937 136.925 156.321 136.456C156.747 135.944 157.409 135.688 158.305 135.688C160.139 135.688 161.057 136.435 161.057 137.928C161.057 139.08 160.95 142.088 160.737 146.952C160.566 151.816 160.481 156.168 160.481 160.008C160.481 163.848 160.63 166.941 160.929 169.288C161.441 173.384 162.166 175.432 163.105 175.432C164.043 175.432 164.747 174.771 165.217 173.448C165.43 172.936 165.771 172.488 166.241 172.104C166.71 171.677 167.307 171.464 168.033 171.464C169.526 171.464 170.273 172.723 170.273 175.24C170.273 176.605 169.526 177.971 168.033 179.336C166.582 180.659 165.131 181.32 163.681 181.32C162.23 181.32 161.057 181.085 160.161 180.616C159.307 180.104 158.603 179.357 158.049 178.376C157.537 177.395 157.11 176.456 156.769 175.56C156.47 174.621 156.257 173.491 156.129 172.168C155.873 170.035 155.681 166.621 155.553 161.928C155.467 157.192 155.424 152.691 155.424 148.424C155.424 144.115 155.467 141.171 155.553 139.592ZM181.961 151.368C184.222 151.368 186.377 152.029 188.425 153.352C190.473 154.675 191.497 156.317 191.497 158.28C191.497 160.2 190.665 162.077 189.001 163.912C187.337 165.704 185.118 166.792 182.345 167.176C181.15 167.347 179.358 167.432 176.969 167.432C177.438 171.059 178.355 173.448 179.72 174.6C180.147 175.069 180.723 175.304 181.449 175.304C184.094 175.304 186.313 174.472 188.105 172.808C189.897 171.101 191.177 170.248 191.945 170.248C192.286 170.248 192.798 170.568 193.481 171.208C194.163 171.848 194.505 172.445 194.505 173C194.505 174.109 193.161 175.709 190.473 177.8C189.278 178.781 187.827 179.613 186.121 180.296C184.457 180.936 182.899 181.256 181.449 181.256C177.737 181.256 175.006 178.867 173.257 174.088C172.147 171.144 171.593 167.901 171.593 164.36C171.593 160.819 172.425 157.768 174.089 155.208C175.753 152.648 178.377 151.368 181.961 151.368ZM182.281 155.784C180.659 155.784 179.273 156.701 178.121 158.536C177.694 159.176 177.289 160.627 176.905 162.888C182.878 162.888 185.865 161.416 185.865 158.472C185.865 156.68 184.67 155.784 182.281 155.784ZM216.899 140.296C217.581 139.869 218.349 139.656 219.203 139.656C220.056 139.656 220.589 140.147 220.803 141.128C220.845 146.077 220.931 153.48 221.059 163.336C221.059 169.352 220.888 174.451 220.547 178.632C220.461 179.272 220.056 179.848 219.331 180.36C218.648 180.829 217.944 181.064 217.219 181.064C216.024 181.064 215.427 180.445 215.427 179.208C215.853 174.941 216.067 169.651 216.067 163.336L215.683 141.832C215.853 141.235 216.259 140.723 216.899 140.296ZM231.705 181.064C230.596 181.064 229.934 180.445 229.721 179.208C229.721 170.589 229.209 162.909 228.185 156.168C228.185 155.315 228.484 154.547 229.081 153.864C229.721 153.181 230.425 152.84 231.193 152.84C232.004 152.84 232.601 153.288 232.985 154.184C234.564 152.093 236.676 151.048 239.321 151.048C242.692 151.048 245.294 152.669 247.129 155.912C249.262 152.84 252.078 151.304 255.577 151.304C259.118 151.304 261.764 152.712 263.513 155.528C264.665 157.277 265.476 159.581 265.945 162.44C266.414 165.299 266.649 169.352 266.649 174.6C266.649 176.648 266.436 178.248 266.009 179.4C265.582 180.509 264.686 181.064 263.321 181.064C262.212 181.064 261.657 180.36 261.657 178.952L261.849 170.952C261.849 161.352 259.353 156.552 254.361 156.552C252.782 156.552 251.673 157.107 251.033 158.216C250.308 159.539 249.881 160.925 249.753 162.376C249.582 164.936 249.497 167.261 249.497 169.352V178.632C249.497 179.315 249.156 179.891 248.473 180.36C247.79 180.829 247.086 181.064 246.361 181.064C245.422 181.064 244.825 180.445 244.569 179.208L244.761 165.96C244.761 161.267 243.972 158.344 242.393 157.192C241.625 156.637 240.452 156.36 238.873 156.36C237.337 156.36 236.185 156.936 235.417 158.088C234.692 159.24 234.329 161.096 234.329 163.656L234.713 175.56C234.713 179.229 233.71 181.064 231.705 181.064ZM289.413 151.112C291.29 151.112 292.229 152.712 292.229 155.912C292.229 156.253 292.229 156.616 292.229 157L292.101 161.48C292.058 162.888 292.037 164.275 292.037 165.64L292.997 180.104C292.997 181.171 291.909 181.704 289.733 181.704C289.605 181.704 289.285 181.704 288.773 181.704C288.304 181.704 287.962 181.512 287.749 181.128C287.578 180.744 287.557 180.275 287.685 179.72C287.856 179.165 287.813 178.547 287.557 177.864C285.594 179.955 282.992 181 279.749 181C273.733 181 270.725 176.349 270.725 167.048C270.725 161.885 271.685 157.981 273.605 155.336C275.568 152.691 278.362 151.368 281.989 151.368C283.696 151.368 285.402 151.667 287.109 152.264C287.664 151.496 288.432 151.112 289.413 151.112ZM282.757 156.936C280.325 156.936 278.512 157.64 277.317 159.048C276.122 160.456 275.525 163.037 275.525 166.792C275.525 173.107 277.232 176.264 280.645 176.264C281.541 176.264 282.522 175.859 283.589 175.048C284.698 174.237 285.466 173.32 285.893 172.296C286.704 169.992 287.109 167.475 287.109 164.744C287.109 162.013 286.768 160.029 286.085 158.792C285.445 157.555 284.336 156.936 282.757 156.936ZM314.988 178.376C313.452 180.168 311.51 181.064 309.164 181.064C306.817 181.064 304.79 180.339 303.084 178.888C299.5 176.115 297.708 171.869 297.708 166.152C297.708 161.672 298.945 158.088 301.42 155.4C303.894 152.669 306.945 151.304 310.572 151.304C314.198 151.304 316.673 152.541 317.996 155.016C319.148 157.192 319.724 160.477 319.724 164.872L319.596 170.12C319.596 172.595 319.702 176.029 319.916 180.424C320.172 184.776 320.3 188.061 320.3 190.28C320.3 193.949 319.382 196.637 317.548 198.344C315.756 200.093 313.004 200.968 309.292 200.968C307.073 200.968 304.812 200.499 302.508 199.56C300.204 198.621 299.052 197.533 299.052 196.296C299.052 195.4 299.286 194.717 299.756 194.248C300.268 193.779 300.844 193.544 301.484 193.544C302.124 193.544 303.553 194.013 305.772 194.952C308.033 195.891 309.654 196.36 310.635 196.36C313.708 196.36 315.244 193.843 315.244 188.808C315.244 183.773 315.158 180.296 314.988 178.376ZM314.924 164.872C314.924 161.757 314.454 159.581 313.516 158.344C312.62 157.064 311.19 156.424 309.228 156.424C307.265 156.424 305.686 157.32 304.492 159.112C303.297 160.904 302.7 163.187 302.7 165.96C302.7 168.691 303.254 170.867 304.364 172.488C305.516 174.109 307.265 174.92 309.612 174.92C311.958 174.92 313.473 173.917 314.156 171.912C314.668 170.291 314.924 167.944 314.924 164.872ZM334.336 151.368C336.597 151.368 338.752 152.029 340.8 153.352C342.848 154.675 343.872 156.317 343.872 158.28C343.872 160.2 343.04 162.077 341.376 163.912C339.712 165.704 337.493 166.792 334.72 167.176C333.525 167.347 331.733 167.432 329.344 167.432C329.813 171.059 330.73 173.448 332.095 174.6C332.522 175.069 333.098 175.304 333.824 175.304C336.469 175.304 338.688 174.472 340.48 172.808C342.272 171.101 343.552 170.248 344.32 170.248C344.661 170.248 345.173 170.568 345.856 171.208C346.538 171.848 346.88 172.445 346.88 173C346.88 174.109 345.536 175.709 342.848 177.8C341.653 178.781 340.202 179.613 338.496 180.296C336.832 180.936 335.274 181.256 333.824 181.256C330.112 181.256 327.381 178.867 325.632 174.088C324.522 171.144 323.968 167.901 323.968 164.36C323.968 160.819 324.8 157.768 326.464 155.208C328.128 152.648 330.752 151.368 334.336 151.368ZM334.656 155.784C333.034 155.784 331.648 156.701 330.496 158.536C330.069 159.176 329.664 160.627 329.28 162.888C335.253 162.888 338.24 161.416 338.24 158.472C338.24 156.68 337.045 155.784 334.656 155.784Z" fill="black"/>
</svg>
